<svg width="69" height="69" viewBox="0 0 69 69" fill="none" xmlns="http://www.w3.org/2000/svg">
    <path d="M55.3417 21.908V15.7509H49.1846V11.4553H55.3417V5.22656H59.6374V11.4553H65.8661V15.7509H59.6374V21.908H55.3417ZM6.72925 63.0031C5.58374 63.0031 4.58142 62.5735 3.72229 61.7144C2.86316 60.8553 2.43359 59.8529 2.43359 58.7074V21.9796C2.43359 20.8818 2.86316 19.8914 3.72229 19.0084C4.58142 18.1255 5.58374 17.684 6.72925 17.684H17.2536L22.48 11.4553H42.5263V15.7509H24.4846L19.2582 21.9796H6.72925V58.7074H55.4133V28.6379H59.709V58.7074C59.709 59.8529 59.2675 60.8553 58.3845 61.7144C57.5015 62.5735 56.5111 63.0031 55.4133 63.0031H6.72925ZM31.0355 52.5503C34.4959 52.5503 37.3954 51.381 39.7342 49.0422C42.0729 46.7035 43.2423 43.8039 43.2423 40.3435C43.2423 36.8831 42.0729 33.9955 39.7342 31.6806C37.3954 29.3657 34.4959 28.2083 31.0355 28.2083C27.5751 28.2083 24.6875 29.3657 22.3726 31.6806C20.0577 33.9955 18.9003 36.8831 18.9003 40.3435C18.9003 43.8039 20.0577 46.7035 22.3726 49.0422C24.6875 51.381 27.5751 52.5503 31.0355 52.5503ZM31.0355 48.2547C28.7683 48.2547 26.8949 47.5029 25.4153 45.9995C23.9357 44.496 23.1959 42.6107 23.1959 40.3435C23.1959 38.0764 23.9357 36.203 25.4153 34.7234C26.8949 33.2438 28.7683 32.504 31.0355 32.504C33.3026 32.504 35.1879 33.2438 36.6914 34.7234C38.1949 36.203 38.9466 38.0764 38.9466 40.3435C38.9466 42.6107 38.1949 44.496 36.6914 45.9995C35.1879 47.5029 33.3026 48.2547 31.0355 48.2547Z" fill="#333333" fill-opacity="0.15"/>
</svg>
