<svg width="22" height="22" viewBox="0 0 22 22" fill="none" xmlns="http://www.w3.org/2000/svg">
    <g clip-path="url(#clip0_2322_46799)">
    <path d="M14.175 15.325L15.3 14.2L11.325 10.2V5.175H9.825V10.8L14.175 15.325ZM10.5 20.5C9.13333 20.5 7.84167 20.2375 6.625 19.7125C5.40833 19.1875 4.34583 18.4708 3.4375 17.5625C2.52917 16.6542 1.8125 15.5917 1.2875 14.375C0.7625 13.1583 0.5 11.8667 0.5 10.5C0.5 9.13333 0.7625 7.84167 1.2875 6.625C1.8125 5.40833 2.52917 4.34583 3.4375 3.4375C4.34583 2.52917 5.40833 1.8125 6.625 1.2875C7.84167 0.7625 9.13333 0.5 10.5 0.5C11.8667 0.5 13.1583 0.7625 14.375 1.2875C15.5917 1.8125 16.6542 2.52917 17.5625 3.4375C18.4708 4.34583 19.1875 5.40833 19.7125 6.625C20.2375 7.84167 20.5 9.13333 20.5 10.5C20.5 11.8667 20.2375 13.1583 19.7125 14.375C19.1875 15.5917 18.4708 16.6542 17.5625 17.5625C16.6542 18.4708 15.5917 19.1875 14.375 19.7125C13.1583 20.2375 11.8667 20.5 10.5 20.5Z" fill="#C10016"/>
    </g>
    <defs>
    <clipPath id="clip0_2322_46799">
    <rect width="21" height="21" fill="white"/>
    </clipPath>
    </defs>
</svg>
    