<svg width="22" height="22" viewBox="0 0 22 22" fill="none" xmlns="http://www.w3.org/2000/svg">
    <path d="M3.66602 19.25V10.0604L1.74102 11.5271L0.916016 10.4271L10.9993 2.75L21.0827 10.45L20.2577 11.5271L18.3327 10.0604V19.25H3.66602ZM7.33268 13.75C7.07296 13.75 6.85525 13.6622 6.67956 13.4865C6.50386 13.3108 6.41602 13.0931 6.41602 12.8333C6.41602 12.5736 6.50386 12.3559 6.67956 12.1802C6.85525 12.0045 7.07296 11.9167 7.33268 11.9167C7.5924 11.9167 7.81011 12.0045 7.98581 12.1802C8.1615 12.3559 8.24935 12.5736 8.24935 12.8333C8.24935 13.0931 8.1615 13.3108 7.98581 13.4865C7.81011 13.6622 7.5924 13.75 7.33268 13.75ZM10.9993 13.75C10.7396 13.75 10.5219 13.6622 10.3462 13.4865C10.1705 13.3108 10.0827 13.0931 10.0827 12.8333C10.0827 12.5736 10.1705 12.3559 10.3462 12.1802C10.5219 12.0045 10.7396 11.9167 10.9993 11.9167C11.2591 11.9167 11.4768 12.0045 11.6525 12.1802C11.8282 12.3559 11.916 12.5736 11.916 12.8333C11.916 13.0931 11.8282 13.3108 11.6525 13.4865C11.4768 13.6622 11.2591 13.75 10.9993 13.75ZM14.666 13.75C14.4063 13.75 14.1886 13.6622 14.0129 13.4865C13.8372 13.3108 13.7493 13.0931 13.7493 12.8333C13.7493 12.5736 13.8372 12.3559 14.0129 12.1802C14.1886 12.0045 14.4063 11.9167 14.666 11.9167C14.9257 11.9167 15.1434 12.0045 15.3191 12.1802C15.4948 12.3559 15.5827 12.5736 15.5827 12.8333C15.5827 13.0931 15.4948 13.3108 15.3191 13.4865C15.1434 13.6622 14.9257 13.75 14.666 13.75Z" fill="#C10016"/>
</svg>
    