<svg width="22" height="22" viewBox="0 0 22 22" fill="none" xmlns="http://www.w3.org/2000/svg">
    <path d="M11.381 11.2143C11.8873 11.2143 12.3194 11.0353 12.6774 10.6774C13.0353 10.3194 13.2143 9.8873 13.2143 9.38095C13.2143 8.8746 13.0353 8.44246 12.6774 8.08452C12.3194 7.72659 11.8873 7.54762 11.381 7.54762C10.8746 7.54762 10.4425 7.72659 10.0845 8.08452C9.72659 8.44246 9.54762 8.8746 9.54762 9.38095C9.54762 9.8873 9.72659 10.3194 10.0845 10.6774C10.4425 11.0353 10.8746 11.2143 11.381 11.2143ZM11.381 21.9524C8.56984 19.5603 6.47024 17.3385 5.08214 15.2869C3.69405 13.2353 3 11.3365 3 9.59048C3 6.97143 3.84246 4.88492 5.52738 3.33095C7.2123 1.77698 9.16349 1 11.381 1C13.5984 1 15.5496 1.77698 17.2345 3.33095C18.9194 4.88492 19.7619 6.97143 19.7619 9.59048C19.7619 11.3365 19.0679 13.2353 17.6798 15.2869C16.2917 17.3385 14.1921 19.5603 11.381 21.9524Z" fill="#C10016"/>
</svg>
    