<svg width="22" height="22" viewBox="0 0 22 22" fill="none" xmlns="http://www.w3.org/2000/svg">
    <path d="M18.8125 20C16.6662 20 14.5331 19.4722 12.4132 18.4167C10.2933 17.3611 8.38889 15.9889 6.7 14.3C5.01111 12.6111 3.63889 10.7067 2.58333 8.58681C1.52778 6.4669 1 4.3338 1 2.1875C1 1.85324 1.11435 1.57176 1.34306 1.34306C1.57176 1.11435 1.85324 1 2.1875 1H5.88194C6.12824 1 6.34375 1.08356 6.52847 1.25069C6.71319 1.41782 6.83194 1.64213 6.88472 1.92361L7.59722 5.24861C7.63241 5.49491 7.62801 5.71921 7.58403 5.92153C7.54005 6.12384 7.44769 6.29537 7.30694 6.43611L4.66806 9.10139C5.65324 10.7375 6.75718 12.1625 7.97986 13.3764C9.20255 14.5903 10.588 15.6194 12.1361 16.4639L14.6431 13.8778C14.819 13.6843 15.0213 13.5479 15.25 13.4688C15.4787 13.3896 15.7074 13.3764 15.9361 13.4292L19.0764 14.1153C19.3403 14.1681 19.5602 14.3 19.7361 14.5111C19.912 14.7222 20 14.9685 20 15.25V18.8125C20 19.1468 19.8856 19.4282 19.6569 19.6569C19.4282 19.8856 19.1468 20 18.8125 20Z" fill="#C10016"/>
</svg>
    